<svg width="358" height="336" viewBox="0 0 358 336" fill="none" xmlns="http://www.w3.org/2000/svg">
<path d="M30.3333 37.2354H330.333C330.333 37.2354 323.833 128.735 330.333 140.235C336.833 151.735 320.333 193.235 330.333 237.735C340.333 282.235 330.333 335.235 330.333 335.235H30.3333C30.3333 335.235 39.3334 209.735 30.3333 205.235C21.3333 200.735 37.8333 110.735 30.3333 84.7354C22.8333 58.7354 30.3333 37.2354 30.3333 37.2354Z" fill="#89BB3E"/>
<path d="M25.3333 33.2354H325.333C325.333 33.2354 318.833 124.735 325.333 136.235C331.833 147.735 315.333 189.235 325.333 233.735C335.333 278.235 325.333 331.235 325.333 331.235H25.3333C25.3333 331.235 34.3334 205.735 25.3333 201.235C16.3333 196.735 32.8333 106.735 25.3333 80.7354C17.8333 54.7354 25.3333 33.2354 25.3333 33.2354Z" fill="#CAFF7B"/>
<path d="M90.7811 156C90.1411 156 89.6611 155.76 89.3411 155.28C89.0211 154.773 88.7811 154.187 88.6211 153.52C88.4878 152.827 88.4078 152.133 88.3811 151.44C88.3811 150.72 88.3811 150.147 88.3811 149.72C88.3811 148.867 88.3944 148.013 88.4211 147.16C88.4478 146.28 88.4878 145.4 88.5411 144.52C88.0611 144.733 87.5144 144.867 86.9011 144.92C86.2878 144.947 85.7278 144.96 85.2211 144.96C84.6078 144.96 84.0078 144.947 83.4211 144.92C82.8611 144.893 82.2878 144.853 81.7011 144.8C81.6744 145.173 81.6211 145.707 81.5411 146.4C81.4878 147.093 81.3944 147.853 81.2611 148.68C81.1544 149.507 81.0078 150.36 80.8211 151.24C80.6344 152.093 80.3944 152.867 80.1011 153.56C79.8344 154.253 79.5011 154.827 79.1011 155.28C78.7278 155.733 78.2878 155.96 77.7811 155.96C77.3544 155.96 77.0478 155.813 76.8611 155.52C76.6744 155.227 76.5811 154.893 76.5811 154.52C76.5811 151.907 76.6611 149.307 76.8211 146.72C77.0078 144.107 77.1011 141.493 77.1011 138.88C77.1011 138.507 77.1011 137.973 77.1011 137.28C77.1011 136.56 77.0744 135.827 77.0211 135.08C76.9944 134.307 76.9411 133.6 76.8611 132.96C76.7811 132.293 76.6611 131.813 76.5011 131.52C76.3678 131.307 76.3011 131.093 76.3011 130.88C76.3011 130.533 76.4211 130.253 76.6611 130.04C76.9011 129.8 77.1811 129.68 77.5011 129.68C78.1944 129.68 78.7811 129.907 79.2611 130.36C79.7411 130.787 80.1411 131.347 80.4611 132.04C80.7811 132.733 81.0344 133.507 81.2211 134.36C81.4078 135.213 81.5411 136.067 81.6211 136.92C81.7011 137.773 81.7544 138.587 81.7811 139.36C81.8078 140.107 81.8211 140.72 81.8211 141.2L81.7811 142.4C82.3944 142.453 82.9944 142.493 83.5811 142.52C84.1944 142.547 84.8078 142.56 85.4211 142.56C85.7678 142.56 86.1144 142.547 86.4611 142.52C86.8344 142.493 87.1811 142.44 87.5011 142.36C87.6078 142.147 87.7544 141.987 87.9411 141.88C88.1278 141.773 88.3278 141.72 88.5411 141.72L88.7011 141.76C88.7278 140.907 88.7544 140.067 88.7811 139.24C88.8078 138.387 88.8211 137.533 88.8211 136.68C88.8211 136.387 88.8211 136.027 88.8211 135.6C88.8211 135.147 88.7944 134.693 88.7411 134.24C88.7144 133.787 88.6611 133.347 88.5811 132.92C88.5278 132.493 88.4344 132.16 88.3011 131.92C88.0344 131.867 87.8078 131.733 87.6211 131.52C87.4344 131.307 87.3411 131.053 87.3411 130.76C87.3411 130.413 87.4611 130.133 87.7011 129.92C87.9411 129.68 88.2211 129.56 88.5411 129.56C89.6344 129.56 90.4744 129.933 91.0611 130.68C91.6744 131.427 92.1278 132.333 92.4211 133.4C92.7144 134.467 92.8878 135.56 92.9411 136.68C93.0211 137.8 93.0611 138.747 93.0611 139.52C93.0611 141.493 92.9678 143.453 92.7811 145.4C92.6211 147.32 92.4344 149.24 92.2211 151.16C92.1678 151.667 92.1011 152.173 92.0211 152.68C91.9411 153.187 91.9011 153.693 91.9011 154.2C91.9011 154.627 91.8611 155.04 91.7811 155.44C91.7278 155.813 91.3944 156 90.7811 156ZM98.9536 143.8C99.0069 143.507 99.1403 143.28 99.3536 143.12C99.5936 142.933 99.8603 142.84 100.154 142.84C101.034 142.84 101.794 143.027 102.434 143.4C103.1 143.747 103.647 144.227 104.074 144.84C104.5 145.427 104.82 146.093 105.034 146.84C105.247 147.587 105.354 148.36 105.354 149.16C105.354 149.88 105.26 150.64 105.074 151.44C104.887 152.24 104.594 152.987 104.194 153.68C103.794 154.347 103.287 154.907 102.674 155.36C102.06 155.787 101.327 156 100.474 156C99.5669 156 98.7136 155.853 97.9136 155.56C97.1403 155.24 96.4603 154.8 95.8736 154.24C95.2869 153.68 94.8336 153.013 94.5136 152.24C94.1936 151.467 94.0336 150.627 94.0336 149.72C94.0336 148.973 94.1536 148.267 94.3936 147.6C94.6336 146.933 94.9669 146.333 95.3936 145.8C95.8203 145.267 96.3269 144.827 96.9136 144.48C97.5269 144.133 98.2069 143.907 98.9536 143.8ZM100.034 146.12C99.7669 146.12 99.5536 146.267 99.3936 146.56C99.2336 146.827 99.1003 147.147 98.9936 147.52C98.9136 147.893 98.8469 148.267 98.7936 148.64C98.7669 149.013 98.7536 149.293 98.7536 149.48C98.7536 150.04 98.7936 150.573 98.8736 151.08C98.9803 151.56 99.1136 151.987 99.2736 152.36C99.4336 152.733 99.6069 153.04 99.7936 153.28C100.007 153.493 100.234 153.6 100.474 153.6C100.847 153.6 101.18 153.467 101.474 153.2C101.794 152.933 102.06 152.6 102.274 152.2C102.487 151.773 102.647 151.293 102.754 150.76C102.887 150.227 102.954 149.693 102.954 149.16C102.954 148.467 102.82 147.747 102.554 147C102.314 146.227 101.834 145.693 101.114 145.4C101.034 145.613 100.887 145.787 100.674 145.92C100.487 146.053 100.274 146.12 100.034 146.12ZM117.735 156C117.201 156 116.735 155.867 116.335 155.6C115.935 155.307 115.588 154.947 115.295 154.52C115.028 154.093 114.788 153.64 114.575 153.16C114.388 152.653 114.228 152.187 114.095 151.76C113.988 152.16 113.841 152.613 113.655 153.12C113.495 153.6 113.281 154.053 113.015 154.48C112.748 154.907 112.428 155.267 112.055 155.56C111.708 155.853 111.281 156 110.775 156C109.975 156 109.295 155.773 108.735 155.32C108.201 154.84 107.775 154.253 107.455 153.56C107.135 152.84 106.908 152.093 106.775 151.32C106.641 150.52 106.575 149.8 106.575 149.16C106.575 148.707 106.615 148.187 106.695 147.6C106.775 146.987 106.921 146.413 107.135 145.88C107.348 145.347 107.641 144.893 108.015 144.52C108.415 144.147 108.921 143.96 109.535 143.96C109.855 143.96 110.108 144.04 110.295 144.2C110.508 144.36 110.668 144.56 110.775 144.8C110.908 145.04 110.988 145.307 111.015 145.6C111.068 145.893 111.108 146.16 111.135 146.4C111.215 147.28 111.255 148.347 111.255 149.6C111.281 150.08 111.295 150.573 111.295 151.08C111.295 151.56 111.308 152.013 111.335 152.44C111.468 152.093 111.588 151.72 111.695 151.32C111.828 150.893 111.948 150.493 112.055 150.12C112.161 149.773 112.255 149.453 112.335 149.16C112.415 148.84 112.508 148.56 112.615 148.32C112.695 148.133 112.855 147.853 113.095 147.48C113.335 147.08 113.708 146.867 114.215 146.84C115.361 146.867 116.281 147.613 116.975 149.08C117.188 149.587 117.375 150.12 117.535 150.68C117.721 151.24 117.881 151.787 118.015 152.32C118.388 150.987 118.628 149.64 118.735 148.28C118.868 146.92 118.935 145.56 118.935 144.2C118.935 143.827 119.041 143.52 119.255 143.28C119.468 143.013 119.761 142.88 120.135 142.88C120.428 142.88 120.655 142.947 120.815 143.08C120.975 143.213 121.095 143.387 121.175 143.6C121.255 143.787 121.295 144 121.295 144.24C121.321 144.48 121.335 144.707 121.335 144.92C121.335 145.267 121.321 145.787 121.295 146.48C121.268 147.173 121.215 147.933 121.135 148.76C121.055 149.56 120.935 150.4 120.775 151.28C120.615 152.133 120.401 152.907 120.135 153.6C119.868 154.293 119.535 154.867 119.135 155.32C118.761 155.773 118.295 156 117.735 156ZM133.468 132.28C133.175 132.227 132.922 132.093 132.708 131.88C132.495 131.64 132.388 131.373 132.388 131.08C132.388 130.76 132.495 130.48 132.708 130.24C132.948 130 133.228 129.88 133.548 129.88C134.802 129.88 135.788 130.253 136.508 131C137.228 131.72 137.775 132.613 138.148 133.68C138.522 134.72 138.762 135.84 138.868 137.04C138.975 138.213 139.028 139.267 139.028 140.2C139.028 141.853 138.962 143.493 138.828 145.12C138.695 146.747 138.535 148.387 138.348 150.04C138.268 150.813 138.175 151.613 138.068 152.44C137.988 153.24 137.948 154.027 137.948 154.8C137.948 155.12 137.828 155.4 137.588 155.64C137.348 155.88 137.068 156 136.748 156C136.295 156 135.908 155.827 135.588 155.48C135.295 155.133 135.055 154.693 134.868 154.16C134.708 153.6 134.588 152.987 134.508 152.32C134.428 151.627 134.375 150.96 134.348 150.32C134.348 149.653 134.348 149.053 134.348 148.52C134.375 147.96 134.388 147.52 134.388 147.2C134.388 146.747 134.388 146.12 134.388 145.32C134.415 144.493 134.428 143.573 134.428 142.56C134.428 141.547 134.415 140.507 134.388 139.44C134.388 138.347 134.348 137.32 134.268 136.36C134.215 135.4 134.122 134.56 133.988 133.84C133.855 133.093 133.682 132.573 133.468 132.28ZM155.404 135.08C156.097 135.08 156.63 135.427 157.004 136.12C157.404 136.787 157.684 137.573 157.844 138.48C158.03 139.387 158.137 140.307 158.164 141.24C158.19 142.147 158.204 142.84 158.204 143.32V144.28C159.057 144.2 159.844 143.96 160.564 143.56C161.284 143.16 161.897 142.667 162.404 142.08C162.91 141.467 163.297 140.773 163.564 140C163.857 139.227 164.004 138.413 164.004 137.56C164.004 135.987 163.537 134.747 162.604 133.84C161.697 132.933 160.457 132.48 158.884 132.48C158.03 132.48 157.257 132.653 156.564 133C155.87 133.347 155.257 133.8 154.724 134.36C154.19 134.92 153.737 135.56 153.364 136.28C152.99 136.973 152.684 137.68 152.444 138.4C152.257 139.013 151.87 139.32 151.284 139.32C150.964 139.32 150.684 139.2 150.444 138.96C150.204 138.72 150.084 138.44 150.084 138.12C150.084 137.667 150.19 137.16 150.404 136.6C150.644 136.013 150.937 135.453 151.284 134.92C151.63 134.36 152.004 133.84 152.404 133.36C152.804 132.88 153.177 132.493 153.524 132.2C154.27 131.587 155.097 131.08 156.004 130.68C156.91 130.28 157.857 130.08 158.844 130.08C160.017 130.08 161.19 130.227 162.364 130.52C163.564 130.787 164.63 131.227 165.564 131.84C166.524 132.427 167.297 133.2 167.884 134.16C168.47 135.12 168.764 136.28 168.764 137.64C168.764 138.573 168.604 139.453 168.284 140.28C167.964 141.107 167.524 141.88 166.964 142.6C166.404 143.293 165.75 143.907 165.004 144.44C164.284 144.973 163.51 145.4 162.684 145.72C163.324 146.093 164.004 146.613 164.724 147.28C165.444 147.92 166.097 148.64 166.684 149.44C167.297 150.24 167.79 151.067 168.164 151.92C168.564 152.773 168.764 153.587 168.764 154.36C168.764 154.76 168.644 155.12 168.404 155.44C168.19 155.733 167.87 155.88 167.444 155.88C166.99 155.88 166.537 155.68 166.084 155.28C165.657 154.853 165.217 154.333 164.764 153.72C164.337 153.08 163.884 152.387 163.404 151.64C162.95 150.893 162.444 150.187 161.884 149.52C161.35 148.853 160.764 148.267 160.124 147.76C159.51 147.253 158.817 146.933 158.044 146.8C157.99 147.467 157.884 148.32 157.724 149.36C157.564 150.4 157.31 151.413 156.964 152.4C156.617 153.387 156.15 154.24 155.564 154.96C155.004 155.653 154.27 156 153.364 156C153.044 156 152.764 155.88 152.524 155.64C152.284 155.4 152.164 155.12 152.164 154.8C152.164 154.4 152.324 154.08 152.644 153.84C152.777 153.44 152.884 152.88 152.964 152.16C153.044 151.413 153.11 150.64 153.164 149.84C153.217 149.013 153.257 148.213 153.284 147.44C153.337 146.667 153.377 146.04 153.404 145.56C153.43 145.08 153.457 144.387 153.484 143.48C153.537 142.573 153.59 141.64 153.644 140.68C153.697 139.693 153.777 138.773 153.884 137.92C153.99 137.067 154.11 136.44 154.244 136.04C154.324 135.747 154.457 135.52 154.644 135.36C154.83 135.173 155.084 135.08 155.404 135.08ZM175.069 156C174.189 156 173.389 155.867 172.669 155.6C171.949 155.307 171.336 154.907 170.829 154.4C170.322 153.867 169.922 153.253 169.629 152.56C169.362 151.84 169.229 151.04 169.229 150.16C169.229 149.307 169.362 148.467 169.629 147.64C169.922 146.787 170.322 146.027 170.829 145.36C171.336 144.667 171.962 144.107 172.709 143.68C173.456 143.227 174.282 143 175.189 143C175.669 143 176.136 143.08 176.589 143.24C177.042 143.373 177.442 143.587 177.789 143.88C178.136 144.147 178.416 144.48 178.629 144.88C178.842 145.28 178.949 145.733 178.949 146.24C178.949 146.907 178.789 147.48 178.469 147.96C178.176 148.413 177.789 148.8 177.309 149.12C176.829 149.413 176.296 149.64 175.709 149.8C175.122 149.933 174.549 150 173.989 150V150.6C173.989 150.76 174.002 151.013 174.029 151.36C174.056 151.68 174.096 152.013 174.149 152.36C174.229 152.68 174.336 152.973 174.469 153.24C174.602 153.48 174.789 153.6 175.029 153.6C175.509 153.6 175.949 153.48 176.349 153.24C176.776 153 177.136 152.707 177.429 152.36C177.749 151.987 178.016 151.587 178.229 151.16C178.442 150.707 178.602 150.267 178.709 149.84C178.762 149.547 178.896 149.32 179.109 149.16C179.322 149 179.576 148.92 179.869 148.92C180.189 148.92 180.469 149.04 180.709 149.28C180.949 149.493 181.069 149.773 181.069 150.12C181.069 150.307 181.016 150.547 180.909 150.84C180.829 151.107 180.722 151.387 180.589 151.68C180.482 151.947 180.349 152.213 180.189 152.48C180.056 152.747 179.949 152.947 179.869 153.08C178.642 155.027 177.042 156 175.069 156ZM175.349 145.4C175.136 145.4 174.936 145.613 174.749 146.04C174.562 146.44 174.429 146.96 174.349 147.6C174.536 147.6 174.749 147.573 174.989 147.52C175.256 147.467 175.496 147.387 175.709 147.28C175.949 147.173 176.149 147.04 176.309 146.88C176.469 146.693 176.549 146.48 176.549 146.24C176.549 146 176.442 145.8 176.229 145.64C176.016 145.48 175.722 145.4 175.349 145.4ZM187.361 156C186.588 156 185.868 155.853 185.201 155.56C184.561 155.24 184.001 154.827 183.521 154.32C183.068 153.813 182.708 153.227 182.441 152.56C182.175 151.867 182.041 151.147 182.041 150.4C182.041 150.053 182.148 149.773 182.361 149.56C182.601 149.32 182.895 149.2 183.241 149.2C183.588 149.2 183.868 149.32 184.081 149.56C184.321 149.773 184.441 150.053 184.441 150.4C184.441 151.013 184.535 151.533 184.721 151.96C184.935 152.36 185.188 152.68 185.481 152.92C185.775 153.16 186.081 153.333 186.401 153.44C186.748 153.547 187.041 153.6 187.281 153.6C187.761 153.6 188.081 153.467 188.241 153.2C188.401 152.933 188.481 152.613 188.481 152.24C188.481 151.467 188.255 150.907 187.801 150.56C187.375 150.213 186.775 149.867 186.001 149.52C185.655 149.36 185.308 149.2 184.961 149.04C184.615 148.853 184.308 148.64 184.041 148.4C183.775 148.16 183.548 147.88 183.361 147.56C183.201 147.24 183.121 146.867 183.121 146.44C183.121 145.827 183.295 145.307 183.641 144.88C184.015 144.427 184.455 144.053 184.961 143.76C185.495 143.467 186.068 143.253 186.681 143.12C187.295 142.987 187.855 142.92 188.361 142.92C189.295 142.92 190.081 143.2 190.721 143.76C191.388 144.32 191.721 145.067 191.721 146C191.721 146.32 191.601 146.6 191.361 146.84C191.121 147.08 190.841 147.2 190.521 147.2C190.175 147.2 189.881 147.08 189.641 146.84C189.428 146.6 189.321 146.32 189.321 146C189.321 145.813 189.241 145.653 189.081 145.52C188.948 145.387 188.788 145.32 188.601 145.32C188.388 145.32 188.188 145.4 188.001 145.56C187.841 145.72 187.761 145.933 187.761 146.2C187.761 146.653 188.028 147 188.561 147.24C189.121 147.48 189.735 147.773 190.401 148.12C191.068 148.467 191.668 148.933 192.201 149.52C192.761 150.08 193.041 150.933 193.041 152.08C193.041 152.773 192.855 153.373 192.481 153.88C192.108 154.36 191.628 154.76 191.041 155.08C190.481 155.4 189.868 155.64 189.201 155.8C188.535 155.933 187.921 156 187.361 156ZM197.189 166.12C196.922 166.12 196.616 166.027 196.269 165.84C195.949 165.68 195.656 165.32 195.389 164.76C195.149 164.28 194.949 163.667 194.789 162.92C194.656 162.2 194.549 161.453 194.469 160.68C194.416 159.907 194.376 159.147 194.349 158.4C194.322 157.653 194.309 157.013 194.309 156.48C194.309 156.053 194.322 155.4 194.349 154.52C194.376 153.613 194.429 152.627 194.509 151.56C194.589 150.467 194.709 149.347 194.869 148.2C195.056 147.027 195.296 145.973 195.589 145.04C195.882 144.08 196.256 143.293 196.709 142.68C197.189 142.067 197.749 141.76 198.389 141.76C198.682 141.76 198.909 141.827 199.069 141.96C199.256 142.093 199.389 142.267 199.469 142.48C199.576 142.693 199.642 142.933 199.669 143.2C199.696 143.44 199.709 143.68 199.709 143.92C199.709 144.267 199.696 144.6 199.669 144.92C199.669 145.24 199.656 145.573 199.629 145.92C200.136 145.333 200.709 144.853 201.349 144.48C202.016 144.08 202.749 143.88 203.549 143.88C204.216 143.88 204.842 143.973 205.429 144.16C206.042 144.32 206.576 144.587 207.029 144.96C207.509 145.307 207.882 145.76 208.149 146.32C208.416 146.853 208.549 147.48 208.549 148.2C208.549 149.32 208.282 150.347 207.749 151.28C207.216 152.213 206.522 153.027 205.669 153.72C204.816 154.387 203.856 154.92 202.789 155.32C201.749 155.693 200.709 155.88 199.669 155.88C199.429 155.88 199.202 155.813 198.989 155.68V155.96C198.909 156.947 198.829 157.907 198.749 158.84C198.696 159.773 198.629 160.627 198.549 161.4C198.496 162.2 198.456 162.893 198.429 163.48C198.402 164.067 198.389 164.52 198.389 164.84C198.389 165.187 198.282 165.48 198.069 165.72C197.856 165.987 197.562 166.12 197.189 166.12ZM199.149 153.6C199.309 153.52 199.482 153.48 199.669 153.48C200.389 153.48 201.002 153.32 201.509 153C202.042 152.653 202.469 152.213 202.789 151.68C203.136 151.147 203.389 150.56 203.549 149.92C203.736 149.253 203.829 148.613 203.829 148C203.829 147.76 203.802 147.467 203.749 147.12C203.696 146.747 203.602 146.467 203.469 146.28C202.962 146.307 202.482 146.52 202.029 146.92C201.576 147.32 201.162 147.8 200.789 148.36C200.442 148.92 200.136 149.507 199.869 150.12C199.629 150.707 199.442 151.2 199.309 151.6C199.256 151.92 199.216 152.253 199.189 152.6C199.189 152.92 199.176 153.253 199.149 153.6ZM214.657 143.8C214.71 143.507 214.843 143.28 215.057 143.12C215.297 142.933 215.563 142.84 215.857 142.84C216.737 142.84 217.497 143.027 218.137 143.4C218.803 143.747 219.35 144.227 219.777 144.84C220.203 145.427 220.523 146.093 220.737 146.84C220.95 147.587 221.057 148.36 221.057 149.16C221.057 149.88 220.963 150.64 220.777 151.44C220.59 152.24 220.297 152.987 219.897 153.68C219.497 154.347 218.99 154.907 218.377 155.36C217.763 155.787 217.03 156 216.177 156C215.27 156 214.417 155.853 213.617 155.56C212.843 155.24 212.163 154.8 211.577 154.24C210.99 153.68 210.537 153.013 210.217 152.24C209.897 151.467 209.737 150.627 209.737 149.72C209.737 148.973 209.857 148.267 210.097 147.6C210.337 146.933 210.67 146.333 211.097 145.8C211.523 145.267 212.03 144.827 212.617 144.48C213.23 144.133 213.91 143.907 214.657 143.8ZM215.737 146.12C215.47 146.12 215.257 146.267 215.097 146.56C214.937 146.827 214.803 147.147 214.697 147.52C214.617 147.893 214.55 148.267 214.497 148.64C214.47 149.013 214.457 149.293 214.457 149.48C214.457 150.04 214.497 150.573 214.577 151.08C214.683 151.56 214.817 151.987 214.977 152.36C215.137 152.733 215.31 153.04 215.497 153.28C215.71 153.493 215.937 153.6 216.177 153.6C216.55 153.6 216.883 153.467 217.177 153.2C217.497 152.933 217.763 152.6 217.977 152.2C218.19 151.773 218.35 151.293 218.457 150.76C218.59 150.227 218.657 149.693 218.657 149.16C218.657 148.467 218.523 147.747 218.257 147C218.017 146.227 217.537 145.693 216.817 145.4C216.737 145.613 216.59 145.787 216.377 145.92C216.19 146.053 215.977 146.12 215.737 146.12ZM222.198 150.2C222.198 149.667 222.251 149.053 222.358 148.36C222.464 147.667 222.638 147.013 222.878 146.4C223.144 145.787 223.504 145.28 223.958 144.88C224.411 144.453 224.984 144.24 225.678 144.24C226.131 144.24 226.464 144.413 226.678 144.76C226.891 145.08 226.998 145.44 226.998 145.84C226.998 145.973 226.984 146.107 226.958 146.24C226.958 146.373 226.944 146.52 226.918 146.68C226.918 146.813 226.904 146.96 226.878 147.12C226.878 147.253 226.864 147.4 226.838 147.56C226.998 147.107 227.184 146.613 227.398 146.08C227.611 145.52 227.878 145.013 228.198 144.56C228.518 144.08 228.891 143.68 229.318 143.36C229.744 143.04 230.238 142.88 230.798 142.88C231.651 142.88 232.358 143.12 232.918 143.6C233.504 144.053 233.971 144.64 234.318 145.36C234.664 146.053 234.904 146.813 235.038 147.64C235.171 148.44 235.238 149.187 235.238 149.88C235.238 150.413 235.184 151.04 235.078 151.76C234.998 152.453 234.824 153.12 234.558 153.76C234.318 154.373 233.971 154.907 233.518 155.36C233.064 155.787 232.491 156 231.798 156C231.264 156 230.904 155.8 230.718 155.4C230.558 154.973 230.478 154.533 230.478 154.08C230.478 153.573 230.518 152.8 230.598 151.76C230.651 151.147 230.691 150.493 230.718 149.8C230.744 149.107 230.758 148.453 230.758 147.84C230.758 147.44 230.744 147.04 230.718 146.64C230.718 146.213 230.664 145.813 230.558 145.44C230.451 145.52 230.331 145.667 230.198 145.88C230.064 146.093 229.904 146.4 229.718 146.8C229.424 147.413 229.158 148.107 228.918 148.88C228.678 149.653 228.451 150.4 228.238 151.12C228.078 151.653 227.918 152.173 227.758 152.68C227.624 153.16 227.478 153.587 227.318 153.96C227.264 154.12 227.184 154.307 227.078 154.52C226.971 154.733 226.838 154.947 226.678 155.16C226.544 155.347 226.358 155.52 226.118 155.68C225.904 155.813 225.651 155.88 225.358 155.88C224.718 155.88 224.184 155.68 223.758 155.28C223.358 154.853 223.038 154.347 222.798 153.76C222.558 153.173 222.398 152.56 222.318 151.92C222.238 151.253 222.198 150.68 222.198 150.2ZM244.615 129.96C245.388 129.96 246.055 130.28 246.615 130.92C247.175 131.533 247.628 132.333 247.975 133.32C248.348 134.307 248.641 135.413 248.855 136.64C249.068 137.84 249.228 139.013 249.335 140.16C249.468 141.307 249.548 142.36 249.575 143.32C249.601 144.28 249.615 145.013 249.615 145.52C249.615 145.893 249.601 146.44 249.575 147.16C249.575 147.88 249.535 148.667 249.455 149.52C249.401 150.373 249.308 151.253 249.175 152.16C249.041 153.04 248.841 153.853 248.575 154.6C248.308 155.32 247.961 155.907 247.535 156.36C247.135 156.84 246.641 157.08 246.055 157.08C245.601 157.08 245.281 156.933 245.095 156.64C244.935 156.347 244.855 156.013 244.855 155.64C244.881 155.533 244.895 155.44 244.895 155.36C244.921 155.253 244.948 155.133 244.975 155C244.308 155.64 243.521 155.96 242.615 155.96C241.735 155.96 240.921 155.827 240.175 155.56C239.428 155.267 238.775 154.867 238.215 154.36C237.681 153.827 237.255 153.2 236.935 152.48C236.641 151.76 236.495 150.96 236.495 150.08C236.495 149.147 236.668 148.293 237.015 147.52C237.361 146.72 237.828 146.04 238.415 145.48C239.028 144.92 239.735 144.48 240.535 144.16C241.361 143.84 242.241 143.68 243.175 143.68C243.441 143.68 243.721 143.72 244.015 143.8C244.335 143.853 244.668 143.987 245.015 144.2C244.935 142.92 244.841 141.653 244.735 140.4C244.628 139.147 244.508 137.96 244.375 136.84C244.241 135.72 244.095 134.693 243.935 133.76C243.775 132.827 243.615 132.067 243.455 131.48C243.428 131.4 243.415 131.293 243.415 131.16C243.415 130.813 243.535 130.533 243.775 130.32C244.015 130.08 244.295 129.96 244.615 129.96ZM245.135 148.64C245.108 148.48 245.041 148.253 244.935 147.96C244.828 147.667 244.681 147.387 244.495 147.12C244.335 146.827 244.148 146.587 243.935 146.4C243.721 146.187 243.468 146.08 243.175 146.08C242.908 146.08 242.641 146.2 242.375 146.44C242.135 146.653 241.921 146.96 241.735 147.36C241.548 147.76 241.401 148.227 241.295 148.76C241.188 149.267 241.135 149.813 241.135 150.4C241.135 150.587 241.148 150.853 241.175 151.2C241.228 151.547 241.295 151.893 241.375 152.24C241.481 152.587 241.628 152.893 241.815 153.16C242.001 153.4 242.241 153.533 242.535 153.56C242.775 153.56 243.001 153.48 243.215 153.32C243.428 153.16 243.615 152.987 243.775 152.8C243.935 152.587 244.068 152.373 244.175 152.16C244.281 151.92 244.348 151.747 244.375 151.64C244.455 151.453 244.588 151.36 244.775 151.36C244.828 151.36 244.895 151.373 244.975 151.4C245.081 151.427 245.148 151.493 245.175 151.6V150.44V148.8C245.148 148.773 245.135 148.72 245.135 148.64ZM267.069 150.24C267.042 150.96 267.015 151.6 266.989 152.16C266.962 152.72 266.922 153.213 266.869 153.64C266.815 154.12 266.775 154.467 266.749 154.68C266.695 155.027 266.562 155.333 266.349 155.6C266.135 155.867 265.829 156 265.429 156C265.269 156 265.042 155.947 264.749 155.84C264.482 155.733 264.242 155.453 264.029 155C263.789 154.52 263.589 153.8 263.429 152.84C263.295 151.88 263.175 150.867 263.069 149.8C262.962 148.733 262.882 147.707 262.829 146.72C262.802 145.707 262.775 144.92 262.749 144.36L261.749 144.4C261.402 144.4 261.109 144.293 260.869 144.08C260.655 143.867 260.535 143.6 260.509 143.28C260.482 142.933 260.575 142.64 260.789 142.4C261.029 142.16 261.322 142.027 261.669 142L262.669 141.96C262.669 140.6 262.682 139.253 262.709 137.92C262.735 136.587 262.855 135.24 263.069 133.88C263.122 133.533 263.189 133.133 263.269 132.68C263.349 132.227 263.469 131.8 263.629 131.4C263.815 130.973 264.042 130.613 264.309 130.32C264.602 130.027 264.975 129.88 265.429 129.88C265.962 129.88 266.322 130.067 266.509 130.44C266.722 130.813 266.855 131.213 266.909 131.64C266.989 132.227 267.069 132.973 267.149 133.88C267.229 135.56 267.269 137.813 267.269 140.64V141.76L268.669 141.68C269.015 141.653 269.309 141.76 269.549 142C269.789 142.213 269.922 142.493 269.949 142.84C269.949 143.16 269.842 143.44 269.629 143.68C269.415 143.92 269.135 144.053 268.789 144.08L267.269 144.16C267.242 145.253 267.215 146.32 267.189 147.36C267.162 148.373 267.122 149.333 267.069 150.24ZM275.438 143.8C275.491 143.507 275.625 143.28 275.838 143.12C276.078 142.933 276.345 142.84 276.638 142.84C277.518 142.84 278.278 143.027 278.918 143.4C279.585 143.747 280.131 144.227 280.558 144.84C280.985 145.427 281.305 146.093 281.518 146.84C281.731 147.587 281.838 148.36 281.838 149.16C281.838 149.88 281.745 150.64 281.558 151.44C281.371 152.24 281.078 152.987 280.678 153.68C280.278 154.347 279.771 154.907 279.158 155.36C278.545 155.787 277.811 156 276.958 156C276.051 156 275.198 155.853 274.398 155.56C273.625 155.24 272.945 154.8 272.358 154.24C271.771 153.68 271.318 153.013 270.998 152.24C270.678 151.467 270.518 150.627 270.518 149.72C270.518 148.973 270.638 148.267 270.878 147.6C271.118 146.933 271.451 146.333 271.878 145.8C272.305 145.267 272.811 144.827 273.398 144.48C274.011 144.133 274.691 143.907 275.438 143.8ZM276.518 146.12C276.251 146.12 276.038 146.267 275.878 146.56C275.718 146.827 275.585 147.147 275.478 147.52C275.398 147.893 275.331 148.267 275.278 148.64C275.251 149.013 275.238 149.293 275.238 149.48C275.238 150.04 275.278 150.573 275.358 151.08C275.465 151.56 275.598 151.987 275.758 152.36C275.918 152.733 276.091 153.04 276.278 153.28C276.491 153.493 276.718 153.6 276.958 153.6C277.331 153.6 277.665 153.467 277.958 153.2C278.278 152.933 278.545 152.6 278.758 152.2C278.971 151.773 279.131 151.293 279.238 150.76C279.371 150.227 279.438 149.693 279.438 149.16C279.438 148.467 279.305 147.747 279.038 147C278.798 146.227 278.318 145.693 277.598 145.4C277.518 145.613 277.371 145.787 277.158 145.92C276.971 146.053 276.758 146.12 276.518 146.12ZM124.902 200C123.276 200 121.849 199.667 120.622 199C119.422 198.307 118.436 197.413 117.662 196.32C116.889 195.2 116.302 193.933 115.902 192.52C115.529 191.107 115.342 189.667 115.342 188.2C115.342 186.627 115.569 185.013 116.022 183.36C116.476 181.707 117.156 180.2 118.062 178.84C118.996 177.48 120.142 176.373 121.502 175.52C122.862 174.64 124.449 174.2 126.262 174.2C127.222 174.2 128.036 174.4 128.702 174.8C129.369 175.2 129.902 175.733 130.302 176.4C130.702 177.04 130.982 177.773 131.142 178.6C131.329 179.427 131.422 180.253 131.422 181.08C131.422 181.4 131.396 181.907 131.342 182.6C131.316 183.267 131.222 183.947 131.062 184.64C130.929 185.333 130.716 185.947 130.422 186.48C130.156 186.987 129.796 187.24 129.342 187.24C128.996 187.24 128.702 187.12 128.462 186.88C128.249 186.64 128.142 186.36 128.142 186.04C128.142 185.96 128.142 185.893 128.142 185.84C128.169 185.76 128.196 185.68 128.222 185.6C128.756 184.08 129.022 182.573 129.022 181.08C129.022 180.627 128.982 180.147 128.902 179.64C128.849 179.107 128.716 178.613 128.502 178.16C128.316 177.707 128.036 177.333 127.662 177.04C127.316 176.747 126.849 176.6 126.262 176.6C125.436 176.6 124.702 176.8 124.062 177.2C123.449 177.6 122.902 178.12 122.422 178.76C121.942 179.4 121.542 180.133 121.222 180.96C120.902 181.787 120.636 182.627 120.422 183.48C120.236 184.333 120.102 185.173 120.022 186C119.942 186.8 119.902 187.507 119.902 188.12C119.902 188.92 119.969 189.867 120.102 190.96C120.262 192.053 120.529 193.093 120.902 194.08C121.302 195.067 121.836 195.907 122.502 196.6C123.196 197.267 124.076 197.6 125.142 197.6C125.942 197.6 126.596 197.4 127.102 197C127.609 196.573 127.996 196.053 128.262 195.44C128.556 194.8 128.742 194.12 128.822 193.4C128.929 192.68 128.982 192 128.982 191.36C128.982 191.013 129.089 190.733 129.302 190.52C129.542 190.28 129.836 190.16 130.182 190.16C130.502 190.16 130.782 190.28 131.022 190.52C131.262 190.733 131.382 191.013 131.382 191.36C131.382 192.427 131.276 193.48 131.062 194.52C130.876 195.533 130.529 196.453 130.022 197.28C129.516 198.08 128.849 198.733 128.022 199.24C127.196 199.747 126.156 200 124.902 200ZM138.449 190.44C138.769 189.8 139.182 189.187 139.689 188.6C140.222 188.013 140.889 187.72 141.689 187.72C142.622 187.72 143.435 187.893 144.129 188.24C144.822 188.56 145.395 189.013 145.849 189.6C146.329 190.16 146.689 190.827 146.929 191.6C147.169 192.347 147.289 193.147 147.289 194C147.289 194.56 147.209 195.2 147.049 195.92C146.915 196.613 146.689 197.267 146.369 197.88C146.049 198.467 145.635 198.973 145.129 199.4C144.649 199.8 144.062 200 143.369 200C143.022 200 142.729 199.88 142.489 199.64C142.275 199.4 142.169 199.12 142.169 198.8C142.169 198.64 142.182 198.52 142.209 198.44C142.369 197.96 142.489 197.387 142.569 196.72C142.649 196.053 142.689 195.373 142.689 194.68C142.689 194.413 142.675 194.053 142.649 193.6C142.622 193.12 142.569 192.64 142.489 192.16C142.409 191.68 142.302 191.253 142.169 190.88C142.035 190.48 141.875 190.227 141.689 190.12C141.662 190.12 141.542 190.2 141.329 190.36C141.142 190.493 140.902 190.88 140.609 191.52C140.315 192.08 140.049 192.72 139.809 193.44C139.569 194.133 139.342 194.827 139.129 195.52C138.969 196.027 138.809 196.507 138.649 196.96C138.515 197.387 138.369 197.787 138.209 198.16C138.155 198.293 138.075 198.467 137.969 198.68C137.862 198.893 137.729 199.093 137.569 199.28C137.435 199.467 137.249 199.627 137.009 199.76C136.795 199.893 136.542 199.96 136.249 199.96C135.955 199.96 135.609 199.867 135.209 199.68C134.835 199.493 134.475 199.08 134.129 198.44C133.809 197.827 133.542 197.067 133.329 196.16C133.142 195.227 132.995 194.28 132.889 193.32C132.809 192.333 132.742 191.373 132.689 190.44C132.662 189.48 132.649 188.667 132.649 188C132.649 187.6 132.649 186.973 132.649 186.12C132.675 185.267 132.729 184.32 132.809 183.28C132.889 182.24 133.009 181.173 133.169 180.08C133.329 178.987 133.555 177.987 133.849 177.08C134.142 176.173 134.502 175.44 134.929 174.88C135.382 174.293 135.929 174 136.569 174C137.129 174 137.489 174.213 137.649 174.64C137.809 175.04 137.889 175.467 137.889 175.92V176.12C137.889 176.333 137.889 176.573 137.889 176.84C137.889 177.107 137.875 177.413 137.849 177.76C137.795 178.507 137.742 179.36 137.689 180.32C137.635 181.28 137.582 182.293 137.529 183.36C137.422 184.88 137.315 186.453 137.209 188.08C137.129 189.707 137.062 191.24 137.009 192.68C137.009 193 136.995 193.307 136.969 193.6C136.969 193.867 136.969 194.12 136.969 194.36C137.182 193.693 137.409 193.027 137.649 192.36C137.889 191.667 138.155 191.027 138.449 190.44ZM153.025 200C151.692 200 150.612 199.627 149.785 198.88C148.959 198.107 148.545 197.04 148.545 195.68C148.545 194.587 148.785 193.52 149.265 192.48C149.745 191.413 150.372 190.48 151.145 189.68C151.945 188.853 152.852 188.187 153.865 187.68C154.905 187.173 155.972 186.92 157.065 186.92C157.999 186.92 158.812 187.08 159.505 187.4C160.199 187.72 160.772 188.16 161.225 188.72C161.679 189.253 162.012 189.893 162.225 190.64C162.439 191.387 162.545 192.2 162.545 193.08C162.545 193.48 162.492 194.067 162.385 194.84C162.305 195.613 162.145 196.387 161.905 197.16C161.692 197.907 161.399 198.573 161.025 199.16C160.652 199.72 160.185 200 159.625 200C159.279 200 158.999 199.92 158.785 199.76C158.599 199.573 158.452 199.36 158.345 199.12C158.239 198.853 158.172 198.573 158.145 198.28C158.119 197.987 158.105 197.707 158.105 197.44C158.105 196.987 158.105 196.547 158.105 196.12C158.132 195.693 158.159 195.253 158.185 194.8C157.972 195.36 157.705 195.947 157.385 196.56C157.092 197.147 156.732 197.707 156.305 198.24C155.879 198.747 155.399 199.173 154.865 199.52C154.332 199.84 153.719 200 153.025 200ZM152.745 196.76C152.745 196.893 152.759 197.067 152.785 197.28C152.812 197.493 152.892 197.6 153.025 197.6C153.505 197.6 153.945 197.347 154.345 196.84C154.772 196.307 155.145 195.693 155.465 195C155.785 194.28 156.052 193.573 156.265 192.88C156.505 192.16 156.679 191.613 156.785 191.24C156.972 190.68 157.345 190.373 157.905 190.32C157.852 190.107 157.759 189.893 157.625 189.68C157.519 189.44 157.332 189.32 157.065 189.32C156.532 189.32 155.999 189.627 155.465 190.24C154.959 190.827 154.505 191.533 154.105 192.36C153.705 193.187 153.372 194.013 153.105 194.84C152.865 195.667 152.745 196.307 152.745 196.76ZM165.857 199.2C165.43 198.64 165.084 197.747 164.817 196.52C164.577 195.293 164.39 194 164.257 192.64C164.15 191.253 164.07 189.907 164.017 188.6C163.99 187.293 163.977 186.28 163.977 185.56C163.977 184.12 164.017 182.76 164.097 181.48C164.177 180.2 164.284 179.093 164.417 178.16C164.47 177.813 164.55 177.4 164.657 176.92C164.764 176.44 164.91 175.987 165.097 175.56C165.284 175.133 165.524 174.773 165.817 174.48C166.137 174.16 166.537 174 167.017 174C167.47 174 167.804 174.187 168.017 174.56C168.124 174.72 168.204 175.267 168.257 176.2C168.337 177.133 168.404 178.28 168.457 179.64C168.51 181 168.55 182.467 168.577 184.04C168.604 185.613 168.617 187.12 168.617 188.56C168.644 189.973 168.657 191.227 168.657 192.32C168.684 193.387 168.697 194.093 168.697 194.44C168.697 194.973 168.697 195.507 168.697 196.04C168.697 196.547 168.684 197.067 168.657 197.6C168.63 198.187 168.59 198.6 168.537 198.84C168.51 199.053 168.457 199.227 168.377 199.36C168.11 199.787 167.75 200 167.297 200C167.137 200 166.924 199.96 166.657 199.88C166.39 199.773 166.124 199.547 165.857 199.2ZM171.951 199.2C171.524 198.64 171.177 197.747 170.911 196.52C170.671 195.293 170.484 194 170.351 192.64C170.244 191.253 170.164 189.907 170.111 188.6C170.084 187.293 170.071 186.28 170.071 185.56C170.071 184.12 170.111 182.76 170.191 181.48C170.271 180.2 170.377 179.093 170.511 178.16C170.564 177.813 170.644 177.4 170.751 176.92C170.857 176.44 171.004 175.987 171.191 175.56C171.377 175.133 171.617 174.773 171.911 174.48C172.231 174.16 172.631 174 173.111 174C173.564 174 173.897 174.187 174.111 174.56C174.217 174.72 174.297 175.267 174.351 176.2C174.431 177.133 174.497 178.28 174.551 179.64C174.604 181 174.644 182.467 174.671 184.04C174.697 185.613 174.711 187.12 174.711 188.56C174.737 189.973 174.751 191.227 174.751 192.32C174.777 193.387 174.791 194.093 174.791 194.44C174.791 194.973 174.791 195.507 174.791 196.04C174.791 196.547 174.777 197.067 174.751 197.6C174.724 198.187 174.684 198.6 174.631 198.84C174.604 199.053 174.551 199.227 174.471 199.36C174.204 199.787 173.844 200 173.391 200C173.231 200 173.017 199.96 172.751 199.88C172.484 199.773 172.217 199.547 171.951 199.2ZM181.924 200C181.044 200 180.244 199.867 179.524 199.6C178.804 199.307 178.191 198.907 177.684 198.4C177.178 197.867 176.778 197.253 176.484 196.56C176.218 195.84 176.084 195.04 176.084 194.16C176.084 193.307 176.218 192.467 176.484 191.64C176.778 190.787 177.178 190.027 177.684 189.36C178.191 188.667 178.818 188.107 179.564 187.68C180.311 187.227 181.138 187 182.044 187C182.524 187 182.991 187.08 183.444 187.24C183.898 187.373 184.298 187.587 184.644 187.88C184.991 188.147 185.271 188.48 185.484 188.88C185.698 189.28 185.804 189.733 185.804 190.24C185.804 190.907 185.644 191.48 185.324 191.96C185.031 192.413 184.644 192.8 184.164 193.12C183.684 193.413 183.151 193.64 182.564 193.8C181.978 193.933 181.404 194 180.844 194V194.6C180.844 194.76 180.858 195.013 180.884 195.36C180.911 195.68 180.951 196.013 181.004 196.36C181.084 196.68 181.191 196.973 181.324 197.24C181.458 197.48 181.644 197.6 181.884 197.6C182.364 197.6 182.804 197.48 183.204 197.24C183.631 197 183.991 196.707 184.284 196.36C184.604 195.987 184.871 195.587 185.084 195.16C185.298 194.707 185.458 194.267 185.564 193.84C185.618 193.547 185.751 193.32 185.964 193.16C186.178 193 186.431 192.92 186.724 192.92C187.044 192.92 187.324 193.04 187.564 193.28C187.804 193.493 187.924 193.773 187.924 194.12C187.924 194.307 187.871 194.547 187.764 194.84C187.684 195.107 187.578 195.387 187.444 195.68C187.338 195.947 187.204 196.213 187.044 196.48C186.911 196.747 186.804 196.947 186.724 197.08C185.498 199.027 183.898 200 181.924 200ZM182.204 189.4C181.991 189.4 181.791 189.613 181.604 190.04C181.418 190.44 181.284 190.96 181.204 191.6C181.391 191.6 181.604 191.573 181.844 191.52C182.111 191.467 182.351 191.387 182.564 191.28C182.804 191.173 183.004 191.04 183.164 190.88C183.324 190.693 183.404 190.48 183.404 190.24C183.404 190 183.298 189.8 183.084 189.64C182.871 189.48 182.578 189.4 182.204 189.4ZM188.897 194.2C188.897 193.667 188.95 193.053 189.057 192.36C189.164 191.667 189.337 191.013 189.577 190.4C189.844 189.787 190.204 189.28 190.657 188.88C191.11 188.453 191.684 188.24 192.377 188.24C192.83 188.24 193.164 188.413 193.377 188.76C193.59 189.08 193.697 189.44 193.697 189.84C193.697 189.973 193.684 190.107 193.657 190.24C193.657 190.373 193.644 190.52 193.617 190.68C193.617 190.813 193.604 190.96 193.577 191.12C193.577 191.253 193.564 191.4 193.537 191.56C193.697 191.107 193.884 190.613 194.097 190.08C194.31 189.52 194.577 189.013 194.897 188.56C195.217 188.08 195.59 187.68 196.017 187.36C196.444 187.04 196.937 186.88 197.497 186.88C198.35 186.88 199.057 187.12 199.617 187.6C200.204 188.053 200.67 188.64 201.017 189.36C201.364 190.053 201.604 190.813 201.737 191.64C201.87 192.44 201.937 193.187 201.937 193.88C201.937 194.413 201.884 195.04 201.777 195.76C201.697 196.453 201.524 197.12 201.257 197.76C201.017 198.373 200.67 198.907 200.217 199.36C199.764 199.787 199.19 200 198.497 200C197.964 200 197.604 199.8 197.417 199.4C197.257 198.973 197.177 198.533 197.177 198.08C197.177 197.573 197.217 196.8 197.297 195.76C197.35 195.147 197.39 194.493 197.417 193.8C197.444 193.107 197.457 192.453 197.457 191.84C197.457 191.44 197.444 191.04 197.417 190.64C197.417 190.213 197.364 189.813 197.257 189.44C197.15 189.52 197.03 189.667 196.897 189.88C196.764 190.093 196.604 190.4 196.417 190.8C196.124 191.413 195.857 192.107 195.617 192.88C195.377 193.653 195.15 194.4 194.937 195.12C194.777 195.653 194.617 196.173 194.457 196.68C194.324 197.16 194.177 197.587 194.017 197.96C193.964 198.12 193.884 198.307 193.777 198.52C193.67 198.733 193.537 198.947 193.377 199.16C193.244 199.347 193.057 199.52 192.817 199.68C192.604 199.813 192.35 199.88 192.057 199.88C191.417 199.88 190.884 199.68 190.457 199.28C190.057 198.853 189.737 198.347 189.497 197.76C189.257 197.173 189.097 196.56 189.017 195.92C188.937 195.253 188.897 194.68 188.897 194.2ZM211.274 200.48C211.887 200.48 212.474 200.6 213.034 200.84C213.167 200.227 213.247 199.627 213.274 199.04C213.327 198.427 213.354 197.813 213.354 197.2C213.354 196.72 213.34 196.24 213.314 195.76C213.287 195.28 213.234 194.813 213.154 194.36C212.967 194.947 212.727 195.533 212.434 196.12C212.167 196.707 211.82 197.227 211.394 197.68C210.994 198.133 210.527 198.507 209.994 198.8C209.46 199.067 208.834 199.2 208.114 199.2C207.447 199.2 206.82 199.12 206.234 198.96C205.647 198.773 205.127 198.507 204.674 198.16C204.22 197.813 203.86 197.373 203.594 196.84C203.327 196.28 203.194 195.64 203.194 194.92C203.194 193.773 203.46 192.72 203.994 191.76C204.554 190.773 205.26 189.92 206.114 189.2C206.994 188.48 207.967 187.92 209.034 187.52C210.127 187.12 211.207 186.92 212.274 186.92C212.62 186.92 212.9 187.04 213.114 187.28C213.354 187.493 213.474 187.76 213.474 188.08C213.474 188.427 213.38 188.693 213.194 188.88C214.1 189.013 214.847 189.413 215.434 190.08C216.02 190.72 216.474 191.48 216.794 192.36C217.14 193.213 217.38 194.12 217.514 195.08C217.647 196.04 217.714 196.88 217.714 197.6C217.714 199.013 217.527 200.453 217.154 201.92C216.807 203.413 216.247 204.76 215.474 205.96C214.727 207.187 213.754 208.187 212.554 208.96C211.38 209.733 209.954 210.12 208.274 210.12C207.34 210.12 206.594 209.827 206.034 209.24C205.5 208.68 205.234 207.933 205.234 207C205.234 206.227 205.394 205.453 205.714 204.68C206.034 203.907 206.474 203.2 207.034 202.56C207.594 201.947 208.234 201.44 208.954 201.04C209.7 200.667 210.474 200.48 211.274 200.48ZM207.834 195.84C207.834 195.973 207.847 196.173 207.874 196.44C207.9 196.68 208.007 196.8 208.194 196.8C208.78 196.8 209.274 196.533 209.674 196C210.1 195.467 210.447 194.827 210.714 194.08C210.98 193.333 211.167 192.587 211.274 191.84C211.407 191.067 211.474 190.453 211.474 190C211.474 189.92 211.487 189.867 211.514 189.84C211.54 189.653 211.594 189.507 211.674 189.4C211.14 189.56 210.634 189.893 210.154 190.4C209.7 190.907 209.3 191.48 208.954 192.12C208.607 192.76 208.327 193.413 208.114 194.08C207.927 194.747 207.834 195.333 207.834 195.84ZM211.274 202.92C210.794 202.92 210.34 203.053 209.914 203.32C209.487 203.587 209.1 203.92 208.754 204.32C208.407 204.72 208.127 205.16 207.914 205.64C207.727 206.12 207.634 206.573 207.634 207C207.634 207.24 207.66 207.413 207.714 207.52C207.794 207.653 207.98 207.72 208.274 207.72C208.834 207.72 209.34 207.573 209.794 207.28C210.247 206.987 210.647 206.613 210.994 206.16C211.34 205.707 211.634 205.213 211.874 204.68C212.114 204.173 212.314 203.68 212.474 203.2C212.1 203.013 211.7 202.92 211.274 202.92ZM224.698 200C223.818 200 223.018 199.867 222.298 199.6C221.578 199.307 220.964 198.907 220.458 198.4C219.951 197.867 219.551 197.253 219.258 196.56C218.991 195.84 218.858 195.04 218.858 194.16C218.858 193.307 218.991 192.467 219.258 191.64C219.551 190.787 219.951 190.027 220.458 189.36C220.964 188.667 221.591 188.107 222.338 187.68C223.084 187.227 223.911 187 224.818 187C225.298 187 225.764 187.08 226.218 187.24C226.671 187.373 227.071 187.587 227.418 187.88C227.764 188.147 228.044 188.48 228.258 188.88C228.471 189.28 228.578 189.733 228.578 190.24C228.578 190.907 228.418 191.48 228.098 191.96C227.804 192.413 227.418 192.8 226.938 193.12C226.458 193.413 225.924 193.64 225.338 193.8C224.751 193.933 224.178 194 223.618 194V194.6C223.618 194.76 223.631 195.013 223.658 195.36C223.684 195.68 223.724 196.013 223.778 196.36C223.858 196.68 223.964 196.973 224.098 197.24C224.231 197.48 224.418 197.6 224.658 197.6C225.138 197.6 225.578 197.48 225.978 197.24C226.404 197 226.764 196.707 227.058 196.36C227.378 195.987 227.644 195.587 227.858 195.16C228.071 194.707 228.231 194.267 228.338 193.84C228.391 193.547 228.524 193.32 228.738 193.16C228.951 193 229.204 192.92 229.498 192.92C229.818 192.92 230.098 193.04 230.338 193.28C230.578 193.493 230.698 193.773 230.698 194.12C230.698 194.307 230.644 194.547 230.538 194.84C230.458 195.107 230.351 195.387 230.218 195.68C230.111 195.947 229.978 196.213 229.818 196.48C229.684 196.747 229.578 196.947 229.498 197.08C228.271 199.027 226.671 200 224.698 200ZM224.978 189.4C224.764 189.4 224.564 189.613 224.378 190.04C224.191 190.44 224.058 190.96 223.978 191.6C224.164 191.6 224.378 191.573 224.618 191.52C224.884 191.467 225.124 191.387 225.338 191.28C225.578 191.173 225.778 191.04 225.938 190.88C226.098 190.693 226.178 190.48 226.178 190.24C226.178 190 226.071 189.8 225.858 189.64C225.644 189.48 225.351 189.4 224.978 189.4ZM236.99 200C236.217 200 235.497 199.853 234.83 199.56C234.19 199.24 233.63 198.827 233.15 198.32C232.697 197.813 232.337 197.227 232.07 196.56C231.804 195.867 231.67 195.147 231.67 194.4C231.67 194.053 231.777 193.773 231.99 193.56C232.23 193.32 232.524 193.2 232.87 193.2C233.217 193.2 233.497 193.32 233.71 193.56C233.95 193.773 234.07 194.053 234.07 194.4C234.07 195.013 234.164 195.533 234.35 195.96C234.564 196.36 234.817 196.68 235.11 196.92C235.404 197.16 235.71 197.333 236.03 197.44C236.377 197.547 236.67 197.6 236.91 197.6C237.39 197.6 237.71 197.467 237.87 197.2C238.03 196.933 238.11 196.613 238.11 196.24C238.11 195.467 237.884 194.907 237.43 194.56C237.004 194.213 236.404 193.867 235.63 193.52C235.284 193.36 234.937 193.2 234.59 193.04C234.244 192.853 233.937 192.64 233.67 192.4C233.404 192.16 233.177 191.88 232.99 191.56C232.83 191.24 232.75 190.867 232.75 190.44C232.75 189.827 232.924 189.307 233.27 188.88C233.644 188.427 234.084 188.053 234.59 187.76C235.124 187.467 235.697 187.253 236.31 187.12C236.924 186.987 237.484 186.92 237.99 186.92C238.924 186.92 239.71 187.2 240.35 187.76C241.017 188.32 241.35 189.067 241.35 190C241.35 190.32 241.23 190.6 240.99 190.84C240.75 191.08 240.47 191.2 240.15 191.2C239.804 191.2 239.51 191.08 239.27 190.84C239.057 190.6 238.95 190.32 238.95 190C238.95 189.813 238.87 189.653 238.71 189.52C238.577 189.387 238.417 189.32 238.23 189.32C238.017 189.32 237.817 189.4 237.63 189.56C237.47 189.72 237.39 189.933 237.39 190.2C237.39 190.653 237.657 191 238.19 191.24C238.75 191.48 239.364 191.773 240.03 192.12C240.697 192.467 241.297 192.933 241.83 193.52C242.39 194.08 242.67 194.933 242.67 196.08C242.67 196.773 242.484 197.373 242.11 197.88C241.737 198.36 241.257 198.76 240.67 199.08C240.11 199.4 239.497 199.64 238.83 199.8C238.164 199.933 237.55 200 236.99 200Z" fill="#50AA50"/>
<rect x="124.637" y="36.2217" width="121.529" height="43" transform="rotate(145.718 124.637 36.2217)" fill="#FFCB0F" fill-opacity="0.5"/>
<rect width="121.529" height="43" transform="matrix(0.826275 0.563266 0.563266 -0.826275 233 36.2217)" fill="#FFCB0F" fill-opacity="0.5"/>
</svg>
