<svg width="109" height="110" viewBox="0 0 109 110" fill="none" xmlns="http://www.w3.org/2000/svg">
<path d="M25.4456 83.7941L65.0374 107.733C65.2019 107.83 65.3919 107.875 65.5824 107.862C65.773 107.849 65.9551 107.779 66.1049 107.66C66.2547 107.542 66.3652 107.381 66.4217 107.198C66.4783 107.016 66.4783 106.821 66.4218 106.638L52.2444 61.6708C52.1973 61.5235 52.1148 61.3901 52.0042 61.2821C51.8936 61.1742 51.7581 61.0949 51.6098 61.0514C51.4619 61.0089 51.306 61.0031 51.1553 61.0344C51.0047 61.0658 50.864 61.1335 50.7455 61.2315L43.4556 67.2662C43.2979 67.3854 43.1816 67.5509 43.1229 67.7396C43.0642 67.9283 43.066 68.1306 43.1282 68.3182C43.2074 68.555 43.377 68.7509 43.6 68.8631C43.8231 68.9754 44.0814 68.9949 44.3188 68.9174C44.4378 68.8825 44.5487 68.8245 44.6454 68.7468L50.8666 63.5839L63.8861 104.83L27.5923 82.8823L36.2999 75.6505C36.404 75.574 36.4913 75.477 36.5565 75.3655C36.6216 75.2539 36.6633 75.1302 36.6788 75.002C36.6944 74.8737 36.6835 74.7437 36.6468 74.6198C36.6101 74.496 36.5485 74.3809 36.4657 74.2818C36.3829 74.1826 36.2806 74.1015 36.1653 74.0434C36.0499 73.9853 35.9238 73.9514 35.7949 73.9439C35.6659 73.9364 35.5368 73.9554 35.4155 73.9997C35.2941 74.0439 35.1831 74.1126 35.0893 74.2014L25.3131 82.305C25.1973 82.4009 25.106 82.5231 25.0469 82.6614C24.9878 82.7996 24.9625 82.95 24.9731 83.1C24.9931 83.2443 25.0462 83.382 25.1281 83.5024C25.2101 83.6228 25.3187 83.7226 25.4456 83.7941Z" fill="#5CE1E6"/>
<path d="M58.3747 98.3125C58.5491 98.4285 58.757 98.4834 58.9659 98.4685C59.1749 98.4536 59.3729 98.3697 59.5291 98.2301C59.6852 98.0905 59.7906 97.9031 59.8287 97.6971C59.8668 97.4912 59.8355 97.2784 59.7397 97.0922L44.9016 67.6143C44.8114 67.4312 44.6644 67.2823 44.4825 67.1896C44.3007 67.097 44.0938 67.0656 43.8927 67.1002L28.3624 69.8846C28.1723 69.9201 27.9976 70.013 27.8619 70.1508C27.7262 70.2887 27.6361 70.4648 27.6036 70.6555C27.571 70.8461 27.5978 71.0422 27.6802 71.2172C27.7625 71.3922 27.8966 71.5378 28.0642 71.6342L35.1774 75.6728L58.2347 98.1982L58.3747 98.3125ZM43.5333 69.0813L55.5321 92.8992L36.4385 74.2486L36.1932 74.0879L31.249 71.2782L43.5333 69.0813Z" fill="#5CE1E6"/>
<path d="M19.015 48.9235C19.2036 49.0471 19.4301 49.0992 19.6537 49.0706C19.7772 49.0557 19.8964 49.0167 20.0048 48.9557C20.1131 48.8947 20.2083 48.8129 20.285 48.7151C20.3617 48.6172 20.4184 48.5052 20.4518 48.3855C20.4852 48.2657 20.4946 48.1406 20.4796 48.0172C20.101 45.3952 20.241 42.7243 20.8917 40.1563C21.1931 39.0149 21.6024 37.9048 22.114 36.8409C22.1681 36.7278 22.1993 36.6051 22.206 36.48C22.2127 36.3548 22.1946 36.2296 22.1528 36.1114C22.1111 35.9932 22.0465 35.8844 21.9627 35.7912C21.8789 35.698 21.7775 35.6222 21.6644 35.5681C21.5513 35.5141 21.4287 35.4828 21.3035 35.4761C21.1784 35.4695 21.0531 35.4876 20.9349 35.5293C20.8167 35.5711 20.7079 35.6357 20.6147 35.7195C20.5215 35.8033 20.4457 35.9046 20.3917 36.0177C19.8267 37.1854 19.3761 38.405 19.046 39.6595C18.3385 42.4609 18.1817 45.3731 18.5845 48.2343C18.6006 48.374 18.6475 48.5083 18.722 48.6275C18.7965 48.7467 18.8966 48.8478 19.015 48.9235ZM44.0216 45.4837C44.0874 45.5434 44.1621 45.5923 44.2431 45.6289C44.6139 45.7361 44.9898 45.8354 45.3762 45.9189C47.3305 46.2704 49.341 46.1404 51.2337 45.5401C53.1265 44.9399 54.8445 43.8875 56.2391 42.474C56.3279 42.3866 56.3985 42.2826 56.447 42.1678C56.4954 42.053 56.5207 41.9298 56.5214 41.8053C56.5222 41.6807 56.4983 41.5572 56.4511 41.4419C56.404 41.3266 56.3345 41.2217 56.2467 41.1333C56.1587 41.0443 56.0539 40.9736 55.9384 40.9253C55.8229 40.8771 55.6989 40.8522 55.5737 40.8523C55.4485 40.8523 55.3246 40.8772 55.2091 40.9255C55.0936 40.9738 54.9888 41.0445 54.9009 41.1336C53.7226 42.3211 52.2753 43.2069 50.6818 43.7161C49.0883 44.2253 47.3955 44.3427 45.747 44.0585C45.4264 43.9954 45.1162 43.9166 44.7795 43.8091C44.6605 43.7715 44.5353 43.7579 44.411 43.7689C44.2868 43.7799 44.1659 43.8154 44.0554 43.8734C43.9449 43.9313 43.847 44.0106 43.7672 44.1065C43.6875 44.2025 43.6275 44.3133 43.5908 44.4325C43.539 44.6307 43.5531 44.8404 43.6308 45.03C43.7085 45.2196 43.8456 45.3788 44.0216 45.4837ZM35.8594 37.2296C35.9853 37.3113 36.1288 37.3618 36.2781 37.377C36.4274 37.3923 36.5782 37.3717 36.718 37.3172C36.9504 37.2262 37.1375 37.047 37.2384 36.8186C37.3393 36.5903 37.3458 36.3313 37.2565 36.0982C36.8491 35.0455 36.5614 33.9504 36.3988 32.8334C36.0457 30.1621 36.1868 27.4486 36.815 24.8283C36.858 24.6382 36.8413 24.4394 36.767 24.2592C36.6928 24.079 36.5647 23.9262 36.4003 23.8215C37.4684 23.3113 38.5671 22.8679 39.6902 22.494C39.8118 22.4585 39.925 22.3989 40.0232 22.3188C40.1214 22.2386 40.2024 22.1396 40.2616 22.0276C40.3207 21.9155 40.3568 21.7927 40.3676 21.6665C40.3783 21.5402 40.3636 21.4131 40.3244 21.2926C40.2851 21.1722 40.222 21.0609 40.1389 20.9652C40.0557 20.8696 39.9542 20.7917 39.8404 20.7361C39.7265 20.6804 39.6027 20.6482 39.4761 20.6414C39.3496 20.6346 39.223 20.6532 39.1039 20.6963C37.1054 21.3664 35.1781 22.2324 33.35 23.2818C31.5958 24.2538 29.9188 25.3592 28.334 26.5882C28.2267 26.661 28.1356 26.7551 28.0663 26.8646C27.9969 26.9741 27.9508 27.0966 27.9308 27.2247C27.9108 27.3528 27.9174 27.4835 27.95 27.609C27.9826 27.7344 28.0407 27.8518 28.1206 27.9538C28.2005 28.0559 28.3005 28.1404 28.4145 28.2022C28.5284 28.264 28.6538 28.3017 28.783 28.313C28.9121 28.3243 29.0421 28.3089 29.165 28.2679C29.288 28.2268 29.4012 28.1609 29.4976 28.0743C31.0085 26.9071 32.605 25.8552 34.2736 24.9273L34.9423 24.5625C34.2856 27.3621 34.1434 30.2577 34.5225 33.1082C34.71 34.3668 35.0402 35.5999 35.5069 36.7838C35.5771 36.968 35.7031 37.1257 35.8673 37.2348L35.8594 37.2296ZM58.0634 31.4221C58.169 31.4922 58.2876 31.5404 58.4122 31.5637C58.5368 31.587 58.6648 31.5851 58.7886 31.558C58.9109 31.533 59.0271 31.4841 59.1305 31.414C59.2338 31.3439 59.3222 31.254 59.3907 31.1496C59.4591 31.0451 59.5062 30.9282 59.5292 30.8054C59.5522 30.6827 59.5507 30.5566 59.5247 30.4345C59.2865 29.4033 58.9226 28.4052 58.4411 27.4628C56.9322 24.5726 54.4945 22.2744 51.5205 20.9382C51.4068 20.887 51.2841 20.8589 51.1595 20.8553C51.0348 20.8518 50.9107 20.8729 50.7943 20.9174C50.6779 20.962 50.5714 21.0292 50.481 21.115C50.3906 21.2009 50.3181 21.3038 50.2676 21.4178C50.1655 21.6459 50.1577 21.9051 50.2461 22.1389C50.3345 22.3727 50.5118 22.562 50.7393 22.6655C53.3217 23.8186 55.4403 25.8082 56.753 28.3132C57.1602 29.125 57.4675 29.9833 57.6681 30.8691C57.7182 31.1055 57.8569 31.3137 58.0558 31.451L58.0634 31.4221ZM39.5369 14.1496L39.6477 14.2222C39.8747 14.3289 40.1348 14.3411 40.3708 14.256C40.6067 14.171 40.7993 13.9957 40.906 13.7688L41.4915 12.5127C43.0779 9.29478 44.4425 5.97222 45.5757 2.56823C45.612 2.44942 45.6245 2.32464 45.6125 2.201C45.6006 2.07736 45.5643 1.95728 45.506 1.84763C45.4476 1.73798 45.3682 1.64091 45.2723 1.56194C45.1764 1.48298 45.0659 1.42367 44.9471 1.38741C44.8283 1.35115 44.7035 1.33864 44.5799 1.35061C44.4562 1.36257 44.3362 1.39878 44.2265 1.45715C44.1169 1.51552 44.0198 1.59491 43.9408 1.6908C43.8619 1.78668 43.8026 1.89719 43.7663 2.016C42.6613 5.33141 41.3339 8.56845 39.7929 11.7051L39.2074 12.9612C39.1022 13.1682 39.077 13.4067 39.1363 13.6312C39.1957 13.8557 39.3355 14.0505 39.5293 14.1785L39.5369 14.1496Z" fill="#5CE1E6"/>
</svg>
